# xmcd CD database file
#
# Track frame offsets:
#	150
#	26263
#	54671
#	82544
#	100252
#	120260
#	141297
#	166388
#	195483
#	226485
#	249655
#	277991
#
# Disc length: 4338 seconds
#
# Revision: 1
# Processed by: cddbd v1.5.1PL2 Copyright (c) Steve Scherf et al.
# Submitted via: CDex 1.51
#
DISCID=9010f00c
DTITLE=Eastwind - Plus!
DYEAR=2001
DGENRE=Jazz
TTITLE0=mr. shaw
TTITLE1=budism
TTITLE2=chix trix
TTITLE3=remembrance
TTITLE4=holetones
TTITLE5=mrs. wilkie's boardinghouse
TTITLE6=two for one
TTITLE7=memorial quilt
TTITLE8=sunspot
TTITLE9=the disguise
TTITLE10=instance
TTITLE11=dabba
EXTD=YEAR: 2001
EXTT0=
EXTT1=
EXTT2=
EXTT3=
EXTT4=
EXTT5=
EXTT6=
EXTT7=
EXTT8=
EXTT9=
EXTT10=
EXTT11=
PLAYORDER=
